<svg width="40" height="40" viewBox="0 0 40 40" fill="none" xmlns="http://www.w3.org/2000/svg">
<path d="M12.4371 12.2221H32.0059C32.7381 12.2221 33.333 11.351 33.333 10.2777C33.333 9.20436 32.739 8.33325 32.0059 8.33325H12.4371C11.7048 8.33325 11.1108 9.20436 11.1108 10.2777C11.1108 11.351 11.7039 12.2221 12.4371 12.2221Z" fill="#FF817B"/>
<path d="M31.7411 18.0557H8.25854C7.37974 18.0557 6.6665 18.9268 6.6665 20.0001C6.6665 21.0734 7.37974 21.9446 8.25854 21.9446H31.7411C32.6199 21.9446 33.3331 21.0734 33.3331 20.0001C33.3331 18.9268 32.6199 18.0557 31.7411 18.0557Z" fill="#FF817B"/>
<path d="M32.005 27.7776H12.4371C11.7048 27.7776 11.1108 28.6487 11.1108 29.722C11.1108 30.7954 11.7048 31.6665 12.4371 31.6665H32.0059C32.7381 31.6665 33.333 30.7954 33.333 29.722C33.333 28.6487 32.7381 27.7776 32.005 27.7776Z" fill="#FF817B"/>
</svg>
